<svg viewBox="0 0 1559 1692" xmlns="http://www.w3.org/2000/svg" fill-rule="evenodd" clip-rule="evenodd" stroke-linecap="round" stroke-linejoin="round" stroke-miterlimit="10"><path d="M32.899 642.819h366.667c13.807 0 25 11.193 25 25v366.666c0 13.807-11.193 25-25 25H32.899c-13.807 0-25-11.193-25-25V667.819c0-13.807 11.193-25 25-25zM586.243 1264.11H952.91c13.807 0 25 11.193 25 25v366.666c0 13.807-11.193 25-25 25H586.243c-13.807 0-25-11.193-25-25V1289.11c0-13.807 11.193-25 25-25zM587.437 7.068h366.667c13.807 0 25 11.193 25 25v366.667c0 13.807-11.193 25-25 25H587.437c-13.807 0-25-11.193-25-25V32.068c0-13.807 11.193-25 25-25z" fill="#fff" fill-rule="nonzero"/><path d="M587.5 8.333h366.667c13.807 0 25 11.193 25 25V400c0 13.807-11.193 25-25 25H587.5c-13.807 0-25-11.193-25-25V33.333c0-13.807 11.193-25 25-25zm0 0h0M33.333 645.833H400c13.807 0 25 11.193 25 25V1037.5c0 13.807-11.193 25-25 25H33.333c-13.807 0-25-11.193-25-25V670.833c0-13.807 11.193-25 25-25zm0 0h0" fill="none" stroke="#000" stroke-width="12.5"/><path d="M739.278 818.002h73.995c2.786 0 5.045 3.744 5.045 8.364v122.682c0 4.619-2.259 8.364-5.045 8.364h-73.995c-2.786 0-5.045-3.745-5.045-8.364V826.366c0-4.62 2.259-8.364 5.045-8.364zM1158.33 645.833h366.667c13.807 0 25 11.193 25 25V1037.5c0 13.807-11.193 25-25 25H1158.33c-13.807 0-25-11.193-25-25V670.833c0-13.807 11.193-25 25-25z" fill="#fff" fill-rule="nonzero"/><path d="M1158.33 645.833h366.667c13.807 0 25 11.193 25 25V1037.5c0 13.807-11.193 25-25 25H1158.33c-13.807 0-25-11.193-25-25V670.833c0-13.807 11.193-25 25-25zm0 0h0M587.5 1266.67h366.667c13.807 0 25 11.193 25 25v366.666c0 13.807-11.193 25-25 25H587.5c-13.807 0-25-11.193-25-25V1291.67c0-13.807 11.193-25 25-25zm0 0h0" fill="none" stroke="#000" stroke-width="12.5"/><path d="M287.03 1068.75c25.118 48.586 59.007 100.964 104.637 152.083 37.845 42.399 79.478 79.126 120.873 110.452" fill="none" stroke="#000" stroke-width="8.33"/><path d="M545.066 1354.55l-23.81-35.47-17.451 24.402 41.261 11.068z" fill-rule="nonzero" stroke="#000" stroke-width="8.33" stroke-linecap="butt" stroke-linejoin="miter"/><path d="M556.25 329.117C513.122 360.895 467.874 400.679 425 450c-40.095 46.124-73.298 95.05-100.515 142.337" fill="none" stroke="#000" stroke-width="8.33"/><path d="M305.439 627.493l32.243-28.025-26.378-14.29-5.865 42.315z" fill-rule="nonzero" stroke="#000" stroke-width="8.33" stroke-linecap="butt" stroke-linejoin="miter"/><path d="M985.417 320.11c56.062 36.202 115.636 83.073 168.75 142.39 38.095 42.544 68.646 86.777 93.095 129.544" fill="none" stroke="#000" stroke-width="8.33"/><path d="M1265.95 627.425l-5.418-42.375-26.527 14.011 31.945 28.364z" fill-rule="nonzero" stroke="#000" stroke-width="8.33" stroke-linecap="butt" stroke-linejoin="miter"/><path d="M1250.73 1068.75c-29.796 51.464-68.288 107.011-117.393 160.417-33.99 36.967-69.706 69.255-104.921 97.197" fill="none" stroke="#000" stroke-width="8.33"/><path d="M996.415 1350.37l40.997-12.009-18.006-23.996-22.991 36.005z" fill-rule="nonzero" stroke="#000" stroke-width="8.33" stroke-linecap="butt" stroke-linejoin="miter"/><path d="M655.08 199.167c10.333 0 16-6.267 16-17.8v-29.534h-6.334V182.3c0 8-2.533 11.067-9.133 11.067-6.733 0-9.267-3.067-9.267-11v-30.534h-6.333V183.3c0 10.2 5.4 15.867 15.067 15.867zM684.346 190.7v5.734c4.267 2.066 9.2 2.733 13.267 2.733 9.733 0 14.467-4.534 14.467-10.8 0-13.8-21.734-7.4-21.734-16.667 0-2.933 2.134-5 8.6-5 3.467 0 6.8.467 11.534 2.533v-5.666c-3.934-1.6-8.534-2.4-12.4-2.4-9.2 0-13.8 4.666-13.8 11.066 0 13.8 21.6 7.867 21.6 16.534 0 2.866-2.467 4.866-8.8 4.866-4.334 0-8.4-.933-12.734-2.933zM757.08 179.1c0-11.467-5.267-17.933-15.2-17.933-11 0-17.2 8-17.2 20.133 0 11.667 6.266 17.867 16.466 17.867 4.6 0 9.134-1.2 13.134-3.534V189.9c-3.734 2.333-7.934 3.733-12.534 3.733-6.733 0-10.266-3.066-10.8-11.2h26.067c.067-1.133.067-2.133.067-3.333zm-15.667-12.4c6.467 0 8.933 2.867 9.4 10.6h-19.8c.533-7.733 3.733-10.6 10.4-10.6zM800.613 167.033v-6.6c-6.4 0-13.667 3.267-17.8 8.667l-1.133-7.267h-12v5.334h7.466v26h-9.466v5.333h29.333v-5.333h-13.867v-20.534c4.934-3.933 11.067-5.6 17.467-5.6zM821.546 145.167v9.866h5.134l-8.067 12.667h7.133l5-12.667v-9.866h-9.2zM855.013 190.7v5.734c4.267 2.066 9.2 2.733 13.267 2.733 9.733 0 14.467-4.534 14.467-10.8 0-13.8-21.734-7.4-21.734-16.667 0-2.933 2.134-5 8.6-5 3.467 0 6.8.467 11.534 2.533v-5.666c-3.934-1.6-8.534-2.4-12.4-2.4-9.2 0-13.8 4.666-13.8 11.066 0 13.8 21.6 7.867 21.6 16.534 0 2.866-2.467 4.866-8.8 4.866-4.334 0-8.4-.933-12.734-2.933zM726.759 273.5h6.533c-2.8-15-7.8-32.333-13.933-46.666h-7.667c-6.133 14.333-11.2 31.666-14 46.666h6.534c.666-3.533 1.333-6.866 2.133-10.2h18.333c.734 3.334 1.4 6.667 2.067 10.2zm-19.133-15.8c2-8.2 4.466-16.466 7.866-26.066 3.4 9.6 5.867 17.866 7.867 26.066h-15.733zM760.092 236.167c-5.2 0-9 2.4-11.333 6.933l-1-6.266h-4.533v49.333h6v-17.8c2.333 3.8 6.066 5.8 10.866 5.8 8.867 0 13.934-7.067 13.934-19.333 0-11.934-5.067-18.667-13.934-18.667zm-1.6 32.667c-6.733 0-9.266-4-9.266-14 0-9.667 2.533-13.334 9.266-13.334 6.734 0 9.334 4 9.334 14 0 9.667-2.6 13.334-9.334 13.334zM802.759 236.167c-5.2 0-9 2.4-11.333 6.933l-1-6.266h-4.534v49.333h6v-17.8c2.334 3.8 6.067 5.8 10.867 5.8 8.867 0 13.933-7.067 13.933-19.333 0-11.934-5.066-18.667-13.933-18.667zm-1.6 32.667c-6.733 0-9.267-4-9.267-14 0-9.667 2.534-13.334 9.267-13.334s9.333 4 9.333 14c0 9.667-2.6 13.334-9.333 13.334zM67.674 836.833l-10.533 33.2-10.534-33.2h-6.533L52.607 873.5h3.2c-1.8 5.2-5.8 7.733-13.466 7.733v5.6c9.933 0 16.133-3.933 19.066-12.533l12.8-37.467h-6.533zM99.141 874.167c10.667 0 16.8-7.267 16.8-20.067 0-11.4-5.533-17.933-15.467-17.933-10.6 0-16.733 7.266-16.733 20 0 11.466 5.533 18 15.4 18zm.667-5.534c-7.134 0-9.867-3.533-9.867-13.4 0-9.866 2.733-13.533 9.867-13.533 7.2 0 9.866 3.533 9.866 13.333 0 9.867-2.666 13.6-9.866 13.6zM151.274 836.833v23.8c-4.933 6.134-8 8.4-11.933 8.4-4.2 0-5.933-2.333-5.933-6.733v-25.467h-6V863.1c0 7.467 3.8 11.067 10 11.067 5.866 0 10.533-3.334 14.2-9.267l1.133 8.6h4.533v-36.667h-6zM202.275 842.033v-6.6c-6.4 0-13.667 3.267-17.8 8.667l-1.134-7.267h-12v5.334h7.467v26h-9.467v5.333h29.334v-5.333h-13.867v-20.534c4.933-3.933 11.067-5.6 17.467-5.6zM211.808 850.1h32v5.333h-32zM272.408 836.167c-5.2 0-9 2.4-11.333 6.933l-1-6.267h-4.533v49.334h6v-17.8c2.333 3.8 6.066 5.8 10.866 5.8 8.867 0 13.934-7.067 13.934-19.334 0-11.933-5.067-18.666-13.934-18.666zm-1.6 32.666c-6.733 0-9.266-4-9.266-14 0-9.666 2.533-13.333 9.266-13.333 6.734 0 9.334 4 9.334 14 0 9.667-2.6 13.333-9.334 13.333zM323.742 873.5h7.333l-14.6-18.933 14.067-17.734h-7.334l-11.4 15h-6.533v-27.666h-6V873.5h6v-16.333h6.6l11.867 16.333zM349.742 864.9l1.133-7c1.267.2 2.734.333 4.267.333 9.733 0 15.467-4.266 15.467-11.466 0-3.267-1.267-5.867-3.667-7.734l6.267-9.066h-6.934l-2.6 7.333c-2.066-.733-4.533-1.133-7.333-1.133-9.8 0-15.533 4.333-15.533 11.666 0 4.267 2.266 7.4 6.333 9.067l-3.267 9.467 3.467 3.533c10.467 0 20.333.933 20.333 5.333 0 3.734-6.266 5.934-27.8 6v5.6c24.067 0 34.067-3.933 34.067-11.866 0-7.334-8.467-9.867-24.2-10.067zm6-23.2c6.067 0 8.667 1.6 8.667 5.467 0 3.8-2.667 5.466-8.667 5.466-6.067 0-8.667-1.666-8.667-5.466 0-3.867 2.6-5.467 8.667-5.467zM1169.8 874.167c10.667 0 16.8-7.267 16.8-20.067 0-11.4-5.533-17.933-15.466-17.933-10.6 0-16.734 7.266-16.734 20 0 11.466 5.534 18 15.4 18zm.667-5.534c-7.133 0-9.867-3.533-9.867-13.4 0-9.866 2.734-13.533 9.867-13.533 7.2 0 9.867 3.533 9.867 13.333 0 9.867-2.667 13.6-9.867 13.6zM1227.4 842.167v-5.334h-16v-8.2h-4.6l-1.4 8.2-8.466 1.467v3.867h8.466v19.8c0 7.2 4.2 12.2 13.267 12.2 3.067 0 6.067-.6 8.733-1.534V866.9a20.262 20.262 0 01-8.133 1.733c-5.8 0-7.867-2.533-7.867-7.466v-19h16zM1260.8 836.167c-5.4 0-9.733 3.066-13.2 8.6v-20.6h-6V873.5h6v-23.867c4.667-6.133 7.534-8.333 11.267-8.333 3.733 0 5.267 2.333 5.267 6.733V873.5h6v-26.267c0-7.466-3.534-11.066-9.334-11.066zM1314.74 854.1c0-11.467-5.267-17.933-15.2-17.933-11 0-17.2 8-17.2 20.133 0 11.667 6.267 17.867 16.467 17.867 4.6 0 9.133-1.2 13.133-3.534V864.9c-3.733 2.333-7.933 3.733-12.533 3.733-6.734 0-10.267-3.066-10.8-11.2h26.066c.067-1.133.067-2.133.067-3.333zm-15.667-12.4c6.467 0 8.934 2.867 9.4 10.6h-19.8c.534-7.733 3.734-10.6 10.4-10.6zM1358.27 842.033v-6.6c-6.4 0-13.666 3.267-17.8 8.667l-1.133-7.267h-12v5.334h7.467v26h-9.467v5.333h29.333v-5.333h-13.866v-20.534c4.933-3.933 11.066-5.6 17.466-5.6zM1367.81 850.1h32v5.333h-32zM1428.4 836.167c-5.2 0-9 2.4-11.333 6.933l-1-6.267h-4.534v49.334h6v-17.8c2.334 3.8 6.067 5.8 10.867 5.8 8.867 0 13.933-7.067 13.933-19.334 0-11.933-5.066-18.666-13.933-18.666zm-1.6 32.666c-6.733 0-9.267-4-9.267-14 0-9.666 2.534-13.333 9.267-13.333s9.333 4 9.333 14c0 9.667-2.6 13.333-9.333 13.333zM1479.74 873.5h7.333l-14.6-18.933 14.067-17.734h-7.334l-11.4 15h-6.533v-27.666h-6V873.5h6v-16.333h6.6l11.867 16.333zM1505.74 864.9l1.133-7c1.267.2 2.733.333 4.267.333 9.733 0 15.466-4.266 15.466-11.466 0-3.267-1.266-5.867-3.666-7.734l6.266-9.066h-6.933l-2.6 7.333c-2.067-.733-4.533-1.133-7.333-1.133-9.8 0-15.534 4.333-15.534 11.666 0 4.267 2.267 7.4 6.334 9.067l-3.267 9.467 3.467 3.533c10.466 0 20.333.933 20.333 5.333 0 3.734-6.267 5.934-27.8 6v5.6c24.067 0 34.067-3.933 34.067-11.866 0-7.334-8.467-9.867-24.2-10.067zm6-23.2c6.066 0 8.666 1.6 8.666 5.467 0 3.8-2.666 5.466-8.666 5.466-6.067 0-8.667-1.666-8.667-5.466 0-3.867 2.6-5.467 8.667-5.467zM640.11 1457.67v23.8c-4.933 6.133-8 8.4-11.933 8.4-4.2 0-5.933-2.334-5.933-6.734v-25.466h-6v26.266c0 7.467 3.8 11.067 10 11.067 5.866 0 10.533-3.333 14.2-9.267l1.133 8.6h4.533v-36.666h-6zM691.111 1462.87v-6.6c-6.4 0-13.667 3.266-17.8 8.666l-1.134-7.266h-12v5.333h7.467v26h-9.467v5.333h29.334v-5.333h-13.867v-20.533c4.933-3.934 11.067-5.6 17.467-5.6zM725.911 1489.47c-5.534 0-8-3.6-8-10.267v-34.2h-19v5.333h13v29.4c0 10.267 4.733 15.267 12.933 15.267 3.333 0 6.533-.867 9.533-2.467v-5.6c-2.666 1.667-5.666 2.534-8.466 2.534zM768.578 1489.47c-5.534 0-8-3.6-8-10.267v-34.2h-19v5.333h13v29.4c0 10.267 4.733 15.267 12.933 15.267 3.333 0 6.533-.867 9.533-2.467v-5.6c-2.666 1.667-5.666 2.534-8.466 2.534zM808.178 1442.27h-8.067v8.933h8.067v-8.933zm-1.067 46.733v-31.333h-17.2v5.333h11.2v26h-13.2v5.333h29.333v-5.333h-10.133zM846.778 1457c-4.8 0-8.533 2.2-10.867 6.2V1445h-6v48.667c3.6.866 7.667 1.333 11.067 1.333 12.667 0 19.2-7.2 19.2-19.733 0-11.6-4.867-18.267-13.4-18.267zm-5.733 32.8c-1.734 0-3.467-.133-5.134-.467V1475.8c0-9.333 2.734-13.467 9.2-13.467 6.4 0 8.867 3.667 8.867 13.334 0 10-3.667 14.133-12.933 14.133zM888.711 1465.07l11.467-10.934v-6.466h-27.667v5.533h21.467l-13.867 12.6 1.534 4.133c10.8 0 15.533 2.534 15.533 8.2 0 7.067-8.333 11-24.667 11v5.934c19.8 0 31.067-6.4 31.067-17.4 0-7.267-5.267-11.6-14.867-12.6z" fill-rule="nonzero"/><path d="M226.392 1243l-24.349-14.616v-3.906l24.349-14.486v4.688l-19.531 11.914 19.531 11.621V1243zM266.594 1250h-25.26v-3.874c6.402-7.139 10.557-11.925 12.467-14.355 1.91-2.431 3.461-4.981 4.655-7.65 1.194-2.669 1.79-5.328 1.79-7.975 0-2.561-.775-4.579-2.327-6.055s-3.727-2.213-6.527-2.213c-2.148 0-5.035.661-8.659 1.985l-.748-4.59a26.108 26.108 0 0110.286-2.083c4.102 0 7.406 1.156 9.912 3.467 2.507 2.311 3.76 5.398 3.76 9.261 0 2.756-.646 5.49-1.937 8.203-1.291 2.713-2.946 5.317-4.964 7.813-2.018 2.495-5.946 6.966-11.784 13.411h19.336V1250zM294.459 1242.55c1.15 0 2.116.39 2.897 1.171.781.782 1.172 1.747 1.172 2.898 0 1.171-.396 2.175-1.188 3.011-.792.835-1.753 1.253-2.881 1.253-1.107 0-2.051-.418-2.832-1.253-.782-.836-1.172-1.84-1.172-3.011 0-1.172.385-2.143 1.155-2.914.771-.77 1.72-1.155 2.849-1.155zM334.596 1203.19c4.861 0 8.599 2.089 11.214 6.266 2.615 4.178 3.922 10.043 3.922 17.595 0 7.313-1.269 13.113-3.808 17.399-2.539 4.286-6.315 6.429-11.328 6.429-4.84 0-8.572-2.083-11.198-6.25-2.626-4.167-3.939-10.026-3.939-17.578 0-7.335 1.275-13.146 3.825-17.432 2.55-4.286 6.32-6.429 11.312-6.429zm0 43.001c3.211 0 5.593-1.524 7.145-4.573 1.551-3.049 2.327-7.905 2.327-14.567 0-6.684-.776-11.54-2.327-14.567-1.552-3.028-3.934-4.541-7.145-4.541-3.169 0-5.534 1.551-7.097 4.655-1.562 3.103-2.343 7.921-2.343 14.453 0 6.619.775 11.464 2.327 14.534 1.552 3.071 3.923 4.606 7.113 4.606zm-.131-24.023c1.368 0 2.523.472 3.467 1.416s1.416 2.1 1.416 3.467c0 1.41-.477 2.62-1.432 3.629s-2.105 1.514-3.451 1.514c-1.323 0-2.457-.505-3.401-1.514s-1.416-2.219-1.416-3.629c0-1.389.461-2.55 1.383-3.483.922-.933 2.067-1.4 3.434-1.4zM1274.66 1228.38l-24.349 14.616v-4.785l19.532-11.621-19.532-11.914v-4.688l24.349 14.486v3.906zM1317.04 1222.07h-30.794v-4.264h30.794v4.264zm0 13.054h-30.794v-4.265h30.794v4.265zM1353.6 1250h-25.26v-3.874c6.402-7.139 10.558-11.925 12.467-14.355 1.91-2.431 3.462-4.981 4.655-7.65 1.194-2.669 1.791-5.328 1.791-7.975 0-2.561-.776-4.579-2.328-6.055-1.551-1.476-3.727-2.213-6.526-2.213-2.149 0-5.035.661-8.659 1.985l-.749-4.59a26.111 26.111 0 0110.286-2.083c4.102 0 7.406 1.156 9.913 3.467 2.506 2.311 3.759 5.398 3.759 9.261 0 2.756-.645 5.49-1.937 8.203-1.291 2.713-2.946 5.317-4.964 7.813-2.018 2.495-5.946 6.966-11.784 13.411h19.336V1250zM1381.46 1242.55c1.15 0 2.116.39 2.897 1.171.781.782 1.172 1.747 1.172 2.898 0 1.171-.396 2.175-1.188 3.011-.792.835-1.752 1.253-2.881 1.253-1.107 0-2.051-.418-2.832-1.253-.781-.836-1.172-1.84-1.172-3.011 0-1.172.385-2.143 1.156-2.914.77-.77 1.72-1.155 2.848-1.155zM1421.6 1203.19c4.861 0 8.599 2.089 11.214 6.266 2.615 4.178 3.923 10.043 3.923 17.595 0 7.313-1.27 13.113-3.809 17.399-2.539 4.286-6.315 6.429-11.328 6.429-4.839 0-8.572-2.083-11.198-6.25-2.626-4.167-3.939-10.026-3.939-17.578 0-7.335 1.275-13.146 3.825-17.432 2.55-4.286 6.321-6.429 11.312-6.429zm0 43.001c3.212 0 5.593-1.524 7.145-4.573 1.552-3.049 2.328-7.905 2.328-14.567 0-6.684-.776-11.54-2.328-14.567-1.552-3.028-3.933-4.541-7.145-4.541-3.168 0-5.534 1.551-7.096 4.655-1.563 3.103-2.344 7.921-2.344 14.453 0 6.619.776 11.464 2.327 14.534 1.552 3.071 3.923 4.606 7.113 4.606zm-.13-24.023c1.367 0 2.523.472 3.467 1.416s1.416 2.1 1.416 3.467c0 1.41-.478 2.62-1.433 3.629-.955 1.009-2.105 1.514-3.45 1.514-1.324 0-2.458-.505-3.402-1.514s-1.416-2.219-1.416-3.629c0-1.389.461-2.55 1.384-3.483.922-.933 2.067-1.4 3.434-1.4z" fill="#ff2600" fill-rule="nonzero"/><path d="M629.167 983.712h300l-150-259.091-150 259.091zm163.636-40.909H765.53V915.53h27.273v27.273zm0-54.546H765.53v-54.545h27.273v54.545z" fill-rule="nonzero"/></svg>